<?xml version="1.0" encoding="UTF-8" standalone="no"?>
<svg width="1113px" height="984px" viewBox="0 0 1113 984" version="1.1" xmlns="http://www.w3.org/2000/svg" xmlns:xlink="http://www.w3.org/1999/xlink" xmlns:sketch="http://www.bohemiancoding.com/sketch/ns">
    <!-- Generator: Sketch 3.4.4 (17249) - http://www.bohemiancoding.com/sketch -->
    <title>coming-soon</title>
    <desc>Created with Sketch.</desc>
    <defs></defs>
    <g id="Page-1" stroke="none" stroke-width="1" fill="none" fill-rule="evenodd" sketch:type="MSPage">
        <g id="bigstock-coming-soon-retro-speech-bubbl-97281206" sketch:type="MSLayerGroup" transform="translate(32.000000, 33.000000)">
            <path d="M990.21,272.622 C1007.94,54.655 220.715,-69.397 106.855,161.339 C29.654,317.783 35.864,626.141 152.192,753.473 C130.214,789.154 127.669,835.352 149.545,874.545 C161.574,896.1 179.285,912.47 199.759,922.86 C178.253,880.69 181.436,831.99 204.45,793.846 C222.077,802.699 241.352,808.287 262.337,809.992 C480.304,827.719 972.49,490.59 990.21,272.622" id="Fill-3" fill="#F0ECE1" sketch:type="MSShapeGroup"></path>
            <path d="M975.21,164.121 C1011.23,195.005 1031.25,229.82 1028.2,267.33 C1011.35,474.466 579.961,785.707 335.453,820.275 C559.309,824.426 1033.04,496.059 1050.42,282.289 C1053.99,238.376 1024.89,198.276 975.21,164.121" id="Fill-4" fill="#F0ECE1" sketch:type="MSShapeGroup"></path>
            <path d="M70.473,147.29 C130.217,26.221 356.406,-7.148 576.896,16.802 C359.207,-20.518 112.109,2.53 52.094,124.151 C-2.459,234.702 -15.361,421.107 22.809,565.893 C0.549,419.048 18.606,252.392 70.473,147.29" id="Fill-5" fill="#F0ECE1" sketch:type="MSShapeGroup"></path>
            <path d="M428.724,763.316 C655.637,685.514 963,444.566 976.6,277.389 C979.64,239.982 957.72,205.489 919.138,175.365 C947.78,203.105 963.26,233.842 960.59,266.697 C947.13,432.172 662.308,665.793 428.724,763.316" id="Fill-6" fill="#3E3D40" sketch:type="MSShapeGroup"></path>
            <path d="M124.442,167.636 C106.756,203.477 93.688,247.729 85.595,295.936 C94.654,254.631 107.676,216.771 124.413,185.241 C192.653,56.694 490.607,40.655 729.122,90.212 C505.315,25.655 191.542,31.661 124.442,167.636" id="Fill-7" fill="#3E3D40" sketch:type="MSShapeGroup"></path>
            <path d="M263.113,140.658 C267.764,140.194 268.928,145.896 268.928,150.081 C268.928,166.591 257.764,175.605 256.37,184.818 C256.37,187.374 257.065,187.308 259.158,187.098 C265.208,186.496 287.067,171.079 287.067,146.89 C287.067,137.82 282.883,128.696 267.764,130.198 C228.461,134.089 153.107,234.813 153.107,304.117 C153.107,330.635 165.199,341.294 183.34,339.5 C208.691,336.989 231.249,299.402 244.275,272.299 C246.136,268.392 242.416,267.364 240.787,267.53 C235.67,268.032 215.202,319.833 194.271,321.902 C182.876,323.034 180.316,314.682 180.316,303.521 C180.316,244.213 237.299,143.213 263.113,140.658" id="Fill-8" fill="#3E3D40" sketch:type="MSShapeGroup"></path>
            <path d="M481.984,187.357 C488.963,186.667 497.799,172.536 497.799,165.791 C497.799,159.972 496.175,157.345 490.125,157.947 C482.917,158.658 473.613,177.256 473.613,181.44 C473.613,184.697 477.336,187.815 481.984,187.357" id="Fill-9" fill="#3E3D40" sketch:type="MSShapeGroup"></path>
            <path d="M298.707,275.28 C297.544,273.304 297.081,270.324 297.081,266.603 C297.081,254.045 302.893,243.005 307.311,242.568 C308.94,242.403 309.87,243.474 309.87,246.035 C309.87,248.127 308.705,251.964 306.613,257.755 C304.29,264.03 301.729,269.865 298.707,275.28 L298.707,275.28 Z M625.494,194.075 C623.4,194.285 618.98,204.254 611.306,217.11 C598.513,238.843 586.653,253.741 581.534,254.249 C579.674,254.431 578.282,252.941 578.282,249.22 C578.282,233.869 592.467,209.443 605.489,198.381 C617.584,188.346 630.143,187.336 630.143,178.961 C630.143,177.802 629.214,177.195 627.817,177.333 C626.887,177.427 625.957,177.752 625.027,178.073 C602.917,187.175 566.921,217.916 556.531,247.206 C548.725,261.37 538.854,274.756 533.85,275.252 C530.828,275.551 529.666,271.941 529.666,267.525 C529.666,239.384 557.345,207.572 557.345,199.198 C557.345,193.385 551.993,188.329 548.037,188.721 C543.153,189.207 535.015,196.99 518.733,212.788 C518.733,212.788 505.016,226.704 490.362,247.928 C500.129,227.422 512.687,205.943 513.385,204.944 C513.619,204.458 513.852,203.735 513.619,203.062 C513.154,201.947 511.992,200.666 509.896,199.479 C505.479,197.354 500.361,196.233 498.501,198.282 C496.624,200.346 486.163,225.997 477.641,248.773 C469.553,264.848 457.296,280.039 451.52,280.612 C445.473,281.209 445.006,277.538 445.006,273.585 C445.006,249.397 471.286,213.534 471.286,207.257 C471.286,203.768 465.475,200.391 460.357,200.893 C458.497,201.08 456.405,203.382 455.008,205.844 C446.239,220.368 436.886,236.055 432.392,252.091 C424.156,268.739 411.618,287.358 405.698,287.943 C402.673,288.241 401.276,284.659 401.276,280.237 C401.276,254.188 426.63,225.169 426.63,215.631 C426.63,210.746 421.513,204.978 417.79,205.342 C415.23,205.595 410.813,211.148 396.86,227.648 C396.86,227.648 384.766,241.873 368.484,266.509 C376.392,251.075 387.09,230.712 392.671,220.157 C393.604,218.435 393.835,216.553 393.835,214.924 C393.835,208.88 389.182,204.221 385.229,204.613 C382.905,204.845 375.694,211.138 364.066,227.411 C364.066,227.411 356.39,236.31 336.62,266.41 C346.391,245.439 359.647,224.59 359.647,223.431 C359.647,223.193 359.413,222.52 358.949,221.868 C358.25,220.776 356.625,219.308 354.53,217.889 C351.273,215.885 344.763,216.531 344.064,217.762 C343.591,219.11 336.008,238.153 328.676,257.511 C328.609,257.642 328.542,257.774 328.475,257.915 C323.593,267.702 318.01,278.719 307.311,279.779 C305.918,279.917 304.753,279.795 303.589,279.448 C311.962,263.732 316.848,246.272 316.848,237.204 C316.848,230.458 314.521,226.036 309.87,226.5 C300.334,227.443 290.566,247.25 290.566,264.224 C290.566,271.902 292.659,277.272 295.684,280.696 C289.402,291.321 282.66,298.497 277.076,299.049 C271.958,299.558 267.542,295.114 267.542,287.203 C267.542,275.109 275.683,254.304 284.285,243.22 C297.313,226.577 308.474,225.009 311.032,224.292 C313.591,223.569 314.987,222.503 314.987,220.174 C314.987,217.85 312.194,214.637 308.242,215.029 L307.311,215.124 C263.822,231.059 250.1,272.885 250.1,290.791 C250.1,303.355 256.61,311.546 268.705,310.349 C281.729,309.058 292.659,297.741 301.032,284.118 C302.661,284.659 304.521,284.703 306.382,284.521 C312.568,283.908 317.723,280.411 321.855,275.898 C317.768,287.231 314.761,296.385 314.761,298.806 C314.761,301.832 317.549,302.489 319.412,302.301 C322.666,301.98 324.062,299.745 326.154,295.82 C329.643,289.196 334.296,280.127 342.436,268.16 C349.413,257.931 362.669,241.735 372.205,231.021 C359.647,253.2 345.458,288.556 345.458,288.556 C344.994,289.533 344.763,290.255 344.763,291.184 C344.763,296.068 351.042,298.006 353.368,297.774 C355.46,297.57 356.857,295.103 368.716,277.88 C379.649,262.148 398.721,237.468 405.929,228.846 C405.929,228.846 406.393,228.333 406.856,227.593 C395.232,245.953 384.299,266.57 384.299,280.525 C384.299,290.527 388.254,298.509 397.787,297.564 C408.73,296.478 420.238,283.444 429.855,265.819 C429.734,267.364 429.657,268.904 429.657,270.451 C429.657,282.081 433.844,290.968 444.079,289.953 C452.776,289.091 461.845,281.64 470.048,269.931 C467.685,276.937 466.172,282.12 466.172,283.814 C466.172,286.839 468.963,287.491 470.823,287.309 C473.15,287.076 475.244,285.708 477.336,281.313 C480.361,275.198 485.475,265.389 493.849,253.161 C501.989,240.962 525.013,217.75 536.411,208.714 C525.48,226.075 511.759,250.688 511.759,266.509 C511.759,278.134 516.176,285.84 525.945,284.869 C535.3,283.947 545.066,274.281 553.719,260.487 C553.675,261.188 553.629,261.894 553.629,262.595 C553.629,272.36 558.512,275.832 565.254,275.165 C579.209,273.778 594.56,254.585 604.795,238.688 C589.675,273.21 580.605,291.548 580.605,291.548 C570.604,313.01 565.954,318.121 563.162,318.397 C561.069,318.601 559.21,316.697 559.21,309.72 C559.21,306.463 559.673,301.997 560.606,296.09 C554.324,306.016 552.232,314.362 552.232,320.875 C552.232,334.129 557.813,337.767 565.021,337.049 C568.279,336.729 571.535,335.244 573.859,332.451 C585.26,318.999 608.746,271.322 625.26,230.844 C631.771,215.084 633.629,208.853 633.629,204.199 C633.629,198.618 627.817,193.843 625.494,194.075 L625.494,194.075 Z" id="Fill-10" fill="#3E3D40" sketch:type="MSShapeGroup"></path>
            <path d="M198.464,465.754 C193.401,463.086 188.707,460.496 184.386,457.974 C180.057,455.452 176.419,452.592 173.468,449.4 C170.511,446.218 169.038,441.825 169.038,436.238 C169.038,430.647 171.991,425.133 177.897,419.696 C180.426,417.336 182.959,415.397 185.494,413.883 C188.023,412.361 190.603,411.477 193.244,411.215 C195.878,410.954 198.357,412.13 200.68,414.753 C202.998,417.368 204.159,421.003 204.159,425.64 C204.159,430.278 203.632,434.761 202.579,439.082 L249.406,420.843 C249.826,417.212 250.298,413.899 250.829,410.893 C251.352,407.886 251.621,404.803 251.621,401.635 C251.621,388.563 247.507,379.058 239.279,373.114 C235.482,370.54 230.998,368.771 225.832,367.802 C220.664,366.841 213.966,366.764 205.739,367.579 C197.516,368.394 187.438,371.447 175.524,376.744 C163.603,382.035 152.637,388.708 142.618,396.768 C132.6,404.833 124.264,414.045 117.62,424.401 C110.976,434.761 107.655,445.747 107.655,457.344 C107.655,468.948 113.56,479.435 125.375,488.807 C130.223,492.975 135.548,496.818 141.353,500.357 C147.151,503.903 152.53,507.431 157.489,510.944 C162.44,514.459 166.608,518.264 169.988,522.364 C173.359,526.456 175.051,531.197 175.051,536.573 C175.051,541.956 172.41,546.8 167.139,551.122 C164.817,553.042 162.233,554.566 159.388,555.682 C156.54,556.809 153.006,557.579 148.789,558.002 C144.563,558.418 138.235,556.514 129.804,552.29 C121.365,548.267 115.667,543.455 112.718,537.841 L88.67,587.368 C104.064,605.253 121.05,613.272 139.612,611.428 C164.713,608.943 185.494,599.509 201.944,583.11 C219.238,566.001 227.892,545.632 227.892,522.003 C227.892,502.388 222.825,487.176 212.702,476.365 C208.272,471.952 203.524,468.417 198.464,465.754" id="Fill-11" fill="#C56657" sketch:type="MSShapeGroup"></path>
            <path d="M355.875,471.523 C353.234,482.855 349.39,493.631 344.326,503.834 C339.263,514.036 332.985,522.833 325.499,530.212 C318.01,537.604 309.413,541.78 299.713,542.739 C296.968,543.009 294.542,542.508 292.436,541.24 C285.261,537.732 281.678,531.76 281.678,523.324 C281.678,510.667 283.996,496.943 288.638,482.133 C294.542,464.041 301.608,449.524 309.836,438.581 C320.17,424.902 331.774,417.427 344.642,416.152 C354.769,415.152 359.832,423.402 359.832,440.912 C359.832,449.986 358.509,460.189 355.875,471.523 L355.875,471.523 Z M404.761,416.529 C404.761,392.907 401.484,375.614 394.948,364.657 C386.725,351.131 373.749,345.241 356.034,346.995 C334.519,349.132 313.95,361.082 294.335,382.85 C276.188,403.21 261.533,427.862 250.352,456.813 C239.172,485.771 233.582,512.268 233.582,536.313 C233.582,558.463 238.219,574.883 247.507,585.561 C255.942,595.273 267.438,599.401 281.993,597.964 C299.287,596.25 317.326,587.086 336.099,570.462 C345.168,562.385 353.865,552.776 362.204,541.61 C370.535,530.452 377.862,518.02 384.191,504.31 C390.52,490.605 395.529,475.775 399.224,459.788 C402.911,443.817 404.761,429.4 404.761,416.529 L404.761,416.529 Z" id="Fill-12" fill="#C56657" sketch:type="MSShapeGroup"></path>
            <path d="M515.662,455.698 C513.018,467.034 509.172,477.805 504.113,488.008 C499.046,498.211 492.771,507.008 485.282,514.391 C477.793,521.778 469.196,525.954 459.5,526.916 C456.755,527.184 454.325,526.685 452.218,525.415 C445.044,521.909 441.46,515.937 441.46,507.501 C441.46,494.844 443.782,481.118 448.423,466.307 C454.325,448.215 461.396,433.699 469.623,422.758 C479.954,409.077 491.557,401.604 504.428,400.327 C514.555,399.328 519.615,407.578 519.615,425.087 C519.615,434.16 518.292,444.364 515.662,455.698 L515.662,455.698 Z M564.542,400.704 C564.542,377.083 561.271,359.79 554.734,348.833 C546.512,335.307 533.536,329.417 515.816,331.17 C494.301,333.308 473.736,345.257 454.118,367.025 C435.975,387.386 421.315,412.038 410.138,440.99 C398.955,469.946 393.369,496.442 393.369,520.489 C393.369,542.64 398.005,559.058 407.29,569.738 C415.725,579.45 427.224,583.575 441.776,582.141 C459.074,580.425 477.108,571.258 495.886,554.637 C504.951,546.562 513.652,536.949 521.99,525.785 C530.318,514.627 537.65,502.194 543.979,488.486 C550.306,474.783 555.315,459.941 559.008,443.964 C562.697,427.994 564.542,413.576 564.542,400.704 L564.542,400.704 Z" id="Fill-13" fill="#C56657" sketch:type="MSShapeGroup"></path>
            <path d="M684.146,318.614 C680.765,335.407 677.975,349.339 675.762,360.42 C673.546,371.508 671.696,380.55 670.225,387.548 C668.747,394.553 667.375,401.435 666.111,408.201 C664.846,414.975 663.681,421.364 662.628,427.378 C661.573,433.39 660.62,438.651 659.782,443.164 C657.459,433.485 655.246,422.312 653.139,409.647 C652.078,403.219 650.97,396.574 649.816,389.731 C648.655,382.881 647.229,374.114 645.542,363.411 C643.853,352.723 641.64,339.174 638.897,322.781 C634.469,323.643 629.297,324.526 623.396,325.426 C617.486,326.326 611.579,327.333 605.677,328.448 C599.768,329.555 593.438,330.663 586.69,331.747 C582.263,373.114 568.341,453.277 544.928,572.243 L592.387,556.465 C599.557,517.788 604.831,488.154 608.211,467.572 C609.263,460.934 610.312,454.761 611.37,449.061 C612.425,443.371 613.271,438.488 613.904,434.415 C616.008,447.078 617.486,457.898 618.334,466.886 C619.175,473.344 620.39,482.979 621.975,495.788 C623.555,508.606 625.503,529.035 627.826,557.072 C630.777,555.728 639.69,552.521 654.561,547.462 C669.433,542.399 678.137,539.75 680.666,539.493 C686.148,494.02 700.489,417.512 723.696,309.955 L684.146,318.614" id="Fill-14" fill="#C56657" sketch:type="MSShapeGroup"></path>
            <path d="M749.17,504.232 C742.94,498.948 733.507,496.927 720.851,498.182 C715.359,498.727 710.616,500.144 706.609,502.438 C694.587,509.322 688.578,519.627 688.578,533.337 C688.578,541.355 691,548.176 695.852,553.813 C698.175,556.318 701.124,558.295 704.709,559.732 C708.297,561.17 712.939,561.609 718.636,561.049 C730.446,559.879 740.255,555.429 748.063,547.691 C755.021,540.68 758.501,532.628 758.501,523.563 C758.501,515.967 755.386,509.53 749.17,504.232" id="Fill-15" fill="#C56657" sketch:type="MSShapeGroup"></path>
            <path d="M803.117,304.935 C798.05,306.072 792.83,307.326 787.454,308.702 C782.073,310.079 776.696,311.402 771.314,312.67 C765.936,313.946 761.242,315.092 757.236,316.122 C750.275,343.389 743.63,370.523 737.3,397.512 C730.976,424.51 724.433,451.521 717.683,478.558 C724.009,477.514 730.284,476.473 736.513,475.428 C742.729,474.398 749.008,473.561 755.336,472.93 C764.829,444.149 774.37,415.522 783.971,387.041 C793.567,358.566 804.166,330.147 815.77,301.781 C812.396,302.751 808.177,303.803 803.117,304.935" id="Fill-16" fill="#C56657" sketch:type="MSShapeGroup"></path>
        </g>
        <g id="coming-soon" sketch:type="MSArtboardGroup"></g>
    </g>
</svg>